<svg width="20" height="20" viewBox="0 0 20 20" fill="none" xmlns="http://www.w3.org/2000/svg">
<path d="M19.9999 17.2025C19.9891 17.5879 19.9011 17.9672 19.741 18.3179C19.581 18.6685 19.3522 18.9834 19.0683 19.2438C18.7844 19.5042 18.4511 19.7048 18.0883 19.8337C17.7255 19.9625 17.3405 20.0171 16.9562 19.994C14.5558 20.0074 12.1554 19.994 9.75497 19.994C9.60712 19.994 9.46533 19.9352 9.36078 19.8305C9.25624 19.7258 9.19751 19.5838 9.19751 19.4357C9.19751 19.2877 9.25624 19.1456 9.36078 19.0409C9.46533 18.9362 9.60712 18.8774 9.75497 18.8774C12.2078 18.8774 14.6606 18.9132 17.1134 18.8774C18.3476 18.8596 18.885 17.9305 18.885 16.8251V2.90856C18.8936 2.55712 18.7949 2.21142 18.602 1.9177C18.4092 1.62397 18.1314 1.39621 17.8058 1.26489C17.4208 1.15968 17.0203 1.12376 16.6228 1.15881H9.75497C9.60712 1.15881 9.46533 1.09999 9.36078 0.995283C9.25624 0.890579 9.19751 0.74857 9.19751 0.600496C9.19751 0.452423 9.25624 0.310414 9.36078 0.20571C9.46533 0.101006 9.60712 0.0421836 9.75497 0.0421836C12.2345 0.0421836 14.7331 -0.0527295 17.2104 0.0421836C17.5898 0.0517928 17.9635 0.136871 18.3097 0.292468C18.6559 0.448065 18.9678 0.671073 19.2272 0.948515C19.4866 1.22596 19.6883 1.55229 19.8205 1.90853C19.9528 2.26478 20.013 2.64381 19.9977 3.02357L19.9999 17.2025Z" fill="white" fill-opacity="0.7"/>
<path d="M0.163319 9.62608C0.069122 9.71755 0.0139762 9.84202 0.00946041 9.97335C0.00946041 9.9901 0.00946036 10.0046 0.00277087 10.0214C-0.00391862 10.0381 0.00277091 10.0515 0.00946041 10.0671C0.0139216 10.1988 0.0690532 10.3236 0.163319 10.4155L4.25394 14.5124C4.35908 14.6141 4.4999 14.6704 4.64606 14.6691C4.79222 14.6679 4.93204 14.6091 5.0354 14.5056C5.13875 14.4021 5.19738 14.2621 5.19865 14.1157C5.19992 13.9693 5.14373 13.8283 5.04219 13.723L1.9037 10.5786H13.8801C14.028 10.5786 14.1698 10.5197 14.2743 10.415C14.3788 10.3103 14.4376 10.1683 14.4376 10.0202C14.4376 9.87217 14.3788 9.73016 14.2743 9.62546C14.1698 9.52076 14.028 9.46193 13.8801 9.46193H1.9037L5.04219 6.31752C5.14373 6.21222 5.19992 6.07119 5.19865 5.9248C5.19738 5.77841 5.13875 5.63838 5.0354 5.53486C4.93204 5.43135 4.79222 5.37263 4.64606 5.37136C4.4999 5.37009 4.35908 5.42636 4.25394 5.52806L0.163319 9.62608Z" fill="white" fill-opacity="0.7"/>
</svg>
